<svg width="1004" height="363" viewBox="0 0 1004 363" fill="none" xmlns="http://www.w3.org/2000/svg">
<path fill-rule="evenodd" clip-rule="evenodd" d="M239.965 122.243C246.582 131.933 243.364 145.11 233.545 151.533C187.165 181.873 212.468 189.874 240.009 198.582C258.263 204.354 277.5 210.437 277.5 223.541C277.5 273.711 233.64 314.383 180.524 314.383C127.408 314.383 78 273.711 78 223.541C78 203.666 88.792 171.155 110.376 140.269L168.189 53.6714C174.09 44.8321 187.058 44.7642 193.052 53.5412L239.965 122.243ZM146.676 252.512C170.582 275.341 204.809 281.898 233.392 271.8C202.614 295.885 158.136 295.108 130.611 268.824C103.991 243.404 102.355 202.842 125.092 173.617C116.591 200.072 123.901 230.764 146.676 252.512Z" fill="url(#paint0_linear_16_96)"/>
<path d="M386.4 163H377V112.72H350.24V163H340.84V105.4H386.4V163ZM406.434 152.76C407.634 154.307 408.94 155.4 410.354 156.04C411.794 156.653 413.38 156.96 415.114 156.96C418.474 156.96 421.087 155.733 422.954 153.28C424.847 150.827 425.794 147.173 425.794 142.32C425.794 139.813 425.58 137.68 425.154 135.92C424.727 134.133 424.114 132.68 423.314 131.56C422.514 130.44 421.54 129.627 420.394 129.12C419.247 128.613 417.954 128.36 416.514 128.36C414.327 128.36 412.434 128.84 410.834 129.8C409.26 130.733 407.794 132.08 406.434 133.84V152.76ZM405.994 128.12C407.7 126.12 409.634 124.507 411.794 123.28C413.98 122.053 416.514 121.44 419.394 121.44C421.687 121.44 423.767 121.907 425.634 122.84C427.5 123.747 429.1 125.08 430.434 126.84C431.767 128.6 432.794 130.787 433.514 133.4C434.26 135.987 434.634 138.96 434.634 142.32C434.634 145.333 434.22 148.147 433.394 150.76C432.594 153.347 431.434 155.6 429.914 157.52C428.394 159.413 426.554 160.907 424.394 162C422.234 163.067 419.794 163.6 417.074 163.6C414.674 163.6 412.634 163.213 410.954 162.44C409.3 161.667 407.794 160.6 406.434 159.24V176.56H397.834V122.2H403.034C404.207 122.2 404.954 122.747 405.274 123.84L405.994 128.12ZM460.63 121.56C463.643 121.56 466.363 122.053 468.79 123.04C471.243 124.027 473.323 125.427 475.03 127.24C476.763 129.053 478.097 131.253 479.03 133.84C479.963 136.427 480.43 139.333 480.43 142.56C480.43 145.787 479.963 148.693 479.03 151.28C478.097 153.867 476.763 156.08 475.03 157.92C473.323 159.733 471.243 161.133 468.79 162.12C466.363 163.107 463.643 163.6 460.63 163.6C457.59 163.6 454.843 163.107 452.39 162.12C449.963 161.133 447.883 159.733 446.15 157.92C444.417 156.08 443.083 153.867 442.15 151.28C441.217 148.693 440.75 145.787 440.75 142.56C440.75 139.333 441.217 136.427 442.15 133.84C443.083 131.253 444.417 129.053 446.15 127.24C447.883 125.427 449.963 124.027 452.39 123.04C454.843 122.053 457.59 121.56 460.63 121.56ZM460.63 156.88C464.31 156.88 467.043 155.653 468.83 153.2C470.643 150.72 471.55 147.187 471.55 142.6C471.55 138.013 470.643 134.48 468.83 132C467.043 129.493 464.31 128.24 460.63 128.24C456.897 128.24 454.123 129.493 452.31 132C450.497 134.48 449.59 138.013 449.59 142.6C449.59 147.187 450.497 150.72 452.31 153.2C454.123 155.653 456.897 156.88 460.63 156.88ZM535.093 122.08V163H527.373V138.32C527.373 137.467 527.426 136.507 527.533 135.44C527.64 134.347 527.773 133.333 527.933 132.4L514.933 155.76C514.666 156.24 514.32 156.627 513.893 156.92C513.466 157.187 512.986 157.32 512.453 157.32H511.533C511 157.32 510.52 157.187 510.093 156.92C509.693 156.627 509.36 156.24 509.093 155.76L495.853 132.28C496.013 133.213 496.146 134.24 496.253 135.36C496.386 136.453 496.453 137.44 496.453 138.32V163H488.693V122.08H495.733C496.32 122.08 496.893 122.213 497.453 122.48C498.04 122.747 498.546 123.267 498.973 124.04L510.053 143C510.426 143.693 510.76 144.44 511.053 145.24C511.373 146.04 511.68 146.84 511.973 147.64C512.266 146.84 512.573 146.04 512.893 145.24C513.213 144.44 513.56 143.693 513.933 143L524.853 124.04C525.253 123.24 525.746 122.72 526.333 122.48C526.92 122.213 527.506 122.08 528.093 122.08H535.093ZM561.846 156.76C563.1 156.76 564.193 156.6 565.126 156.28C566.086 155.933 566.873 155.48 567.486 154.92C568.126 154.333 568.593 153.64 568.886 152.84C569.206 152.04 569.366 151.16 569.366 150.2C569.366 149.347 569.22 148.547 568.926 147.8C568.66 147.027 568.22 146.36 567.606 145.8C567.02 145.213 566.246 144.76 565.286 144.44C564.326 144.093 563.153 143.92 561.766 143.92H553.806V156.76H561.846ZM561.726 137.72C564.553 137.72 566.94 138.067 568.886 138.76C570.833 139.427 572.406 140.333 573.606 141.48C574.806 142.627 575.673 143.96 576.206 145.48C576.74 146.973 577.006 148.533 577.006 150.16C577.006 152.053 576.673 153.787 576.006 155.36C575.34 156.907 574.353 158.253 573.046 159.4C571.766 160.547 570.18 161.44 568.286 162.08C566.42 162.693 564.273 163 561.846 163H545.646V122.2H553.806V137.72H561.726ZM593.726 122.2V163H585.126V122.2H593.726ZM659.92 122.2V163H604.24V122.2H612.84V156.52H627.8V122.2H636.4V156.52H651.36V122.2H659.92ZM707.292 163H698.692V128.88H687.332C687.012 133.973 686.519 138.373 685.852 142.08C685.212 145.76 684.439 148.88 683.532 151.44C682.625 154 681.612 156.08 680.492 157.68C679.372 159.253 678.185 160.48 676.932 161.36C675.679 162.24 674.385 162.827 673.052 163.12C671.745 163.413 670.425 163.56 669.092 163.56C666.505 163.56 665.212 163.133 665.212 162.28V156.88H667.452C668.332 156.88 669.225 156.733 670.132 156.44C671.065 156.147 671.959 155.573 672.812 154.72C673.665 153.84 674.479 152.613 675.252 151.04C676.052 149.467 676.772 147.4 677.412 144.84C678.079 142.253 678.652 139.12 679.132 135.44C679.612 131.733 679.985 127.32 680.252 122.2H707.292V163ZM744.516 138C744.516 136.56 744.302 135.227 743.876 134C743.476 132.747 742.876 131.667 742.076 130.76C741.276 129.827 740.276 129.107 739.076 128.6C737.902 128.067 736.542 127.8 734.996 127.8C731.876 127.8 729.422 128.693 727.636 130.48C725.849 132.267 724.716 134.773 724.236 138H744.516ZM723.996 143.28C724.102 145.6 724.462 147.613 725.076 149.32C725.689 151 726.502 152.4 727.516 153.52C728.556 154.64 729.782 155.48 731.196 156.04C732.636 156.573 734.236 156.84 735.996 156.84C737.676 156.84 739.129 156.653 740.356 156.28C741.582 155.88 742.649 155.453 743.556 155C744.462 154.52 745.236 154.093 745.876 153.72C746.516 153.32 747.102 153.12 747.636 153.12C748.329 153.12 748.862 153.387 749.236 153.92L751.676 157.08C750.662 158.28 749.516 159.293 748.236 160.12C746.956 160.947 745.596 161.627 744.156 162.16C742.716 162.667 741.236 163.027 739.716 163.24C738.196 163.48 736.716 163.6 735.276 163.6C732.449 163.6 729.822 163.133 727.396 162.2C724.996 161.24 722.902 159.84 721.116 158C719.356 156.16 717.969 153.88 716.956 151.16C715.969 148.44 715.476 145.307 715.476 141.76C715.476 138.933 715.916 136.293 716.796 133.84C717.702 131.387 718.982 129.253 720.636 127.44C722.316 125.627 724.342 124.2 726.716 123.16C729.116 122.093 731.822 121.56 734.836 121.56C737.342 121.56 739.662 121.973 741.796 122.8C743.929 123.6 745.769 124.787 747.316 126.36C748.862 127.933 750.062 129.867 750.916 132.16C751.796 134.427 752.236 137.013 752.236 139.92C752.236 141.253 752.089 142.147 751.796 142.6C751.502 143.053 750.969 143.28 750.196 143.28H723.996ZM795.056 122.2V163H786.496V144.48H768.856V163H760.256V122.2H768.856V138H786.496V122.2H795.056ZM840.368 122.2V163H831.808V144.48H814.168V163H805.568V122.2H814.168V138H831.808V122.2H840.368ZM867.081 156.76C868.334 156.76 869.427 156.6 870.361 156.28C871.321 155.933 872.107 155.48 872.721 154.92C873.361 154.333 873.827 153.64 874.121 152.84C874.441 152.04 874.601 151.16 874.601 150.2C874.601 149.347 874.454 148.547 874.161 147.8C873.894 147.027 873.454 146.36 872.841 145.8C872.254 145.213 871.481 144.76 870.521 144.44C869.561 144.093 868.387 143.92 867.001 143.92H859.041V156.76H867.081ZM866.961 137.72C869.787 137.72 872.174 138.067 874.121 138.76C876.067 139.427 877.641 140.333 878.841 141.48C880.041 142.627 880.907 143.96 881.441 145.48C881.974 146.973 882.241 148.533 882.241 150.16C882.241 152.053 881.907 153.787 881.241 155.36C880.574 156.907 879.587 158.253 878.281 159.4C877.001 160.547 875.414 161.44 873.521 162.08C871.654 162.693 869.507 163 867.081 163H850.881V122.2H859.041V137.72H866.961ZM898.961 122.2V163H890.361V122.2H898.961ZM936.234 138C936.234 136.56 936.021 135.227 935.594 134C935.194 132.747 934.594 131.667 933.794 130.76C932.994 129.827 931.994 129.107 930.794 128.6C929.621 128.067 928.261 127.8 926.714 127.8C923.594 127.8 921.141 128.693 919.354 130.48C917.568 132.267 916.434 134.773 915.954 138H936.234ZM915.714 143.28C915.821 145.6 916.181 147.613 916.794 149.32C917.408 151 918.221 152.4 919.234 153.52C920.274 154.64 921.501 155.48 922.914 156.04C924.354 156.573 925.954 156.84 927.714 156.84C929.394 156.84 930.848 156.653 932.074 156.28C933.301 155.88 934.368 155.453 935.274 155C936.181 154.52 936.954 154.093 937.594 153.72C938.234 153.32 938.821 153.12 939.354 153.12C940.048 153.12 940.581 153.387 940.954 153.92L943.394 157.08C942.381 158.28 941.234 159.293 939.954 160.12C938.674 160.947 937.314 161.627 935.874 162.16C934.434 162.667 932.954 163.027 931.434 163.24C929.914 163.48 928.434 163.6 926.994 163.6C924.168 163.6 921.541 163.133 919.114 162.2C916.714 161.24 914.621 159.84 912.834 158C911.074 156.16 909.688 153.88 908.674 151.16C907.688 148.44 907.194 145.307 907.194 141.76C907.194 138.933 907.634 136.293 908.514 133.84C909.421 131.387 910.701 129.253 912.354 127.44C914.034 125.627 916.061 124.2 918.434 123.16C920.834 122.093 923.541 121.56 926.554 121.56C929.061 121.56 931.381 121.973 933.514 122.8C935.648 123.6 937.488 124.787 939.034 126.36C940.581 127.933 941.781 129.867 942.634 132.16C943.514 134.427 943.954 137.013 943.954 139.92C943.954 141.253 943.808 142.147 943.514 142.6C943.221 143.053 942.688 143.28 941.914 143.28H915.714ZM375.12 219.2V260H366.52V234.44C366.52 233.88 366.547 233.267 366.6 232.6C366.653 231.933 366.733 231.253 366.84 230.56C366.573 231.147 366.307 231.693 366.04 232.2C365.8 232.68 365.533 233.12 365.24 233.52L347.52 257.88C347.2 258.387 346.773 258.88 346.24 259.36C345.707 259.813 345.107 260.04 344.44 260.04H339.24V219.2H347.84V244.76C347.84 245.32 347.8 245.947 347.72 246.64C347.667 247.333 347.587 248.027 347.48 248.72C348.013 247.493 348.56 246.48 349.12 245.68L366.84 221.36C367.16 220.827 367.587 220.333 368.12 219.88C368.653 219.427 369.253 219.2 369.92 219.2H375.12ZM420.368 219.2V260H411.808V241.48H394.168V260H385.568V219.2H394.168V235H411.808V219.2H420.368ZM465.681 219.2V260H457.121V241.48H439.481V260H430.881V219.2H439.481V235H457.121V219.2H465.681ZM493.833 218.56C496.846 218.56 499.566 219.053 501.993 220.04C504.446 221.027 506.526 222.427 508.233 224.24C509.966 226.053 511.3 228.253 512.233 230.84C513.166 233.427 513.633 236.333 513.633 239.56C513.633 242.787 513.166 245.693 512.233 248.28C511.3 250.867 509.966 253.08 508.233 254.92C506.526 256.733 504.446 258.133 501.993 259.12C499.566 260.107 496.846 260.6 493.833 260.6C490.793 260.6 488.046 260.107 485.593 259.12C483.166 258.133 481.086 256.733 479.353 254.92C477.62 253.08 476.286 250.867 475.353 248.28C474.42 245.693 473.953 242.787 473.953 239.56C473.953 236.333 474.42 233.427 475.353 230.84C476.286 228.253 477.62 226.053 479.353 224.24C481.086 222.427 483.166 221.027 485.593 220.04C488.046 219.053 490.793 218.56 493.833 218.56ZM493.833 253.88C497.513 253.88 500.246 252.653 502.033 250.2C503.846 247.72 504.753 244.187 504.753 239.6C504.753 235.013 503.846 231.48 502.033 229C500.246 226.493 497.513 225.24 493.833 225.24C490.1 225.24 487.326 226.493 485.513 229C483.7 231.48 482.793 235.013 482.793 239.6C482.793 244.187 483.7 247.72 485.513 250.2C487.326 252.653 490.1 253.88 493.833 253.88ZM538.096 254.04C540.443 254.04 542.296 253.48 543.656 252.36C545.043 251.213 545.736 249.68 545.736 247.76C545.736 246.933 545.616 246.16 545.376 245.44C545.136 244.72 544.723 244.107 544.136 243.6C543.55 243.067 542.763 242.653 541.776 242.36C540.816 242.067 539.603 241.92 538.136 241.92H530.096V254.04H538.096ZM530.096 224.88V236.52H537.176C538.243 236.52 539.216 236.373 540.096 236.08C541.003 235.76 541.776 235.333 542.416 234.8C543.083 234.24 543.59 233.587 543.936 232.84C544.31 232.067 544.496 231.213 544.496 230.28C544.496 229.613 544.376 228.96 544.136 228.32C543.896 227.653 543.483 227.067 542.896 226.56C542.336 226.053 541.59 225.653 540.656 225.36C539.723 225.04 538.563 224.88 537.176 224.88H530.096ZM537.456 219.2C539.99 219.2 542.176 219.453 544.016 219.96C545.856 220.44 547.363 221.12 548.536 222C549.736 222.88 550.616 223.92 551.176 225.12C551.736 226.32 552.016 227.613 552.016 229C552.016 229.88 551.896 230.8 551.656 231.76C551.416 232.72 551.003 233.64 550.416 234.52C549.83 235.373 549.03 236.16 548.016 236.88C547.03 237.6 545.763 238.16 544.216 238.56C547.123 239.093 549.416 240.16 551.096 241.76C552.803 243.333 553.656 245.44 553.656 248.08C553.656 250.107 553.243 251.867 552.416 253.36C551.59 254.853 550.456 256.093 549.016 257.08C547.603 258.067 545.95 258.8 544.056 259.28C542.19 259.76 540.216 260 538.136 260H521.896V219.2H537.456ZM583.618 242.16C580.551 242.267 577.965 242.52 575.858 242.92C573.751 243.293 572.045 243.787 570.738 244.4C569.431 244.987 568.485 245.693 567.898 246.52C567.338 247.347 567.058 248.253 567.058 249.24C567.058 250.2 567.205 251.027 567.498 251.72C567.818 252.387 568.245 252.947 568.778 253.4C569.338 253.827 569.978 254.147 570.698 254.36C571.445 254.547 572.258 254.64 573.138 254.64C575.378 254.64 577.298 254.227 578.898 253.4C580.525 252.547 582.098 251.32 583.618 249.72V242.16ZM560.818 224.88C565.431 220.587 570.925 218.44 577.298 218.44C579.645 218.44 581.725 218.827 583.538 219.6C585.378 220.347 586.911 221.413 588.138 222.8C589.391 224.187 590.338 225.84 590.978 227.76C591.645 229.653 591.978 231.76 591.978 234.08V260H588.138C587.311 260 586.685 259.88 586.258 259.64C585.831 259.373 585.471 258.853 585.178 258.08L584.338 254.76C583.298 255.693 582.271 256.533 581.258 257.28C580.245 258 579.191 258.613 578.098 259.12C577.031 259.627 575.871 260 574.618 260.24C573.391 260.507 572.031 260.64 570.538 260.64C568.885 260.64 567.338 260.413 565.898 259.96C564.485 259.507 563.258 258.827 562.218 257.92C561.178 256.987 560.351 255.84 559.738 254.48C559.151 253.12 558.858 251.52 558.858 249.68C558.858 248.107 559.271 246.573 560.098 245.08C560.951 243.587 562.338 242.253 564.258 241.08C566.205 239.88 568.751 238.893 571.898 238.12C575.071 237.347 578.978 236.907 583.618 236.8V234.08C583.618 231.147 582.991 228.96 581.738 227.52C580.485 226.08 578.645 225.36 576.218 225.36C574.565 225.36 573.178 225.573 572.058 226C570.938 226.4 569.965 226.84 569.138 227.32C568.311 227.8 567.578 228.253 566.938 228.68C566.298 229.08 565.618 229.28 564.898 229.28C564.311 229.28 563.805 229.133 563.378 228.84C562.978 228.52 562.645 228.133 562.378 227.68L560.818 224.88ZM644.333 253.52V271.24C644.333 272.04 644.106 272.667 643.653 273.12C643.199 273.6 642.613 273.84 641.893 273.84H636.573V260H602.053V219.2H610.653V253.52H628.293V219.2H636.853V253.52H644.333ZM686.917 219.2V260H678.317V234.44C678.317 233.88 678.344 233.267 678.397 232.6C678.45 231.933 678.53 231.253 678.637 230.56C678.37 231.147 678.104 231.693 677.837 232.2C677.597 232.68 677.33 233.12 677.037 233.52L659.317 257.88C658.997 258.387 658.57 258.88 658.037 259.36C657.504 259.813 656.904 260.04 656.237 260.04H651.037V219.2H659.637V244.76C659.637 245.32 659.597 245.947 659.517 246.64C659.464 247.333 659.384 248.027 659.277 248.72C659.81 247.493 660.357 246.48 660.917 245.68L678.637 221.36C678.957 220.827 679.384 220.333 679.917 219.88C680.45 219.427 681.05 219.2 681.717 219.2H686.917ZM733.245 219.2V260H724.645V234.44C724.645 233.88 724.672 233.267 724.725 232.6C724.778 231.933 724.858 231.253 724.965 230.56C724.698 231.147 724.432 231.693 724.165 232.2C723.925 232.68 723.658 233.12 723.365 233.52L705.645 257.88C705.325 258.387 704.898 258.88 704.365 259.36C703.832 259.813 703.232 260.04 702.565 260.04H697.365V219.2H705.965V244.76C705.965 245.32 705.925 245.947 705.845 246.64C705.792 247.333 705.712 248.027 705.605 248.72C706.138 247.493 706.685 246.48 707.245 245.68L724.965 221.36C725.285 220.827 725.712 220.333 726.245 219.88C726.778 219.427 727.378 219.2 728.045 219.2H733.245Z" fill="url(#paint1_linear_16_96)"/>
<defs>
<linearGradient id="paint0_linear_16_96" x1="177.75" y1="46.7465" x2="177.75" y2="314.383" gradientUnits="userSpaceOnUse">
<stop stop-color="#001A4F"/>
<stop offset="1" stop-color="#00E0FF"/>
</linearGradient>
<linearGradient id="paint1_linear_16_96" x1="651.5" y1="72" x2="651.5" y2="291" gradientUnits="userSpaceOnUse">
<stop stop-color="#001A4F"/>
<stop offset="0.554343" stop-color="#008BB3"/>
<stop offset="1" stop-color="#00E0FF"/>
</linearGradient>
</defs>
</svg>
